<svg width="158" height="38" viewBox="0 0 158 38" fill="none" xmlns="http://www.w3.org/2000/svg">
<path d="M6.88899 24.3677V36.3644H3.61154C2.16093 36.3644 0.984985 35.1884 0.984985 33.7378V19.8152C0.984985 19.1127 1.26642 18.4394 1.76641 17.9459L18.1824 1.74221C19.2053 0.732538 20.8497 0.732537 21.8726 1.74221L38.2886 17.9459C38.7886 18.4394 39.07 19.1127 39.07 19.8152V33.7378C39.07 35.1884 37.894 36.3644 36.4434 36.3644H33.166V29.8087C33.166 27.7011 32.3157 25.6755 30.8157 24.1949C28.0597 21.4745 23.7882 21.1861 20.7233 23.35L21.986 25.3836C22.4452 26.123 22.6884 26.976 22.6884 27.8463V28.6856C22.6884 29.3973 22.4033 30.0794 21.8968 30.5794C20.8605 31.6023 19.1945 31.6023 18.1582 30.5794C17.6517 30.0794 17.3665 29.3973 17.3665 28.6856V28.1564C17.3665 27.106 17.7873 26.0994 18.5348 25.3616L19.7309 24.181C20.0435 23.8724 20.3756 23.5954 20.7233 23.35L19.1788 20.8625C16.9298 17.2406 11.9001 16.6437 8.86587 19.6387C7.60099 20.8872 6.88899 22.5904 6.88899 24.3677Z" fill="#5A9A97"/>
<path d="M5.90397 24.3678C5.90397 22.327 6.72161 20.3713 8.17399 18.9377C11.658 15.4988 17.4333 16.1842 20.0156 20.343L21.0418 21.9956C24.3917 20.1829 28.6656 20.6887 31.5076 23.4939C33.1942 25.1588 34.1509 27.4366 34.1509 29.8088V35.3794H36.4434C37.35 35.3794 38.085 34.6445 38.085 33.7379V19.8152C38.085 19.3762 37.9092 18.9553 37.5967 18.6469L21.1807 2.44318C20.5415 1.81216 19.5137 1.81221 18.8743 2.44318L2.45822 18.6469C2.14574 18.9553 1.96991 19.3762 1.96991 19.8152V33.7379C1.96991 34.6445 2.70488 35.3794 3.61151 35.3794H5.90397V24.3678ZM21.7035 27.8464C21.7035 27.1597 21.5116 26.4866 21.1493 25.9032L20.4805 24.8261C20.4612 24.8447 20.4419 24.8632 20.4228 24.8821L19.2267 26.0626C18.6667 26.6154 18.3514 27.3695 18.3514 28.1564V28.6856C18.3514 29.1339 18.5311 29.5636 18.8501 29.8785C19.5028 30.5227 20.5521 30.5227 21.2048 29.8785C21.5238 29.5636 21.7035 29.1339 21.7035 28.6856V27.8464ZM40.0549 33.7379C40.0549 35.7324 38.438 37.3494 36.4434 37.3494H32.181V29.8088C32.181 27.9657 31.437 26.1923 30.1238 24.896C27.9408 22.7413 24.671 22.3299 22.0831 23.6728L22.8228 24.8641C23.3788 25.7595 23.6734 26.7924 23.6734 27.8464V28.6856C23.6734 29.6608 23.2826 30.5954 22.5886 31.2804C21.1687 32.6819 18.8862 32.6819 17.4663 31.2804C16.7723 30.5954 16.3815 29.6608 16.3815 28.6856V28.1564C16.3815 26.8426 16.9079 25.5836 17.8429 24.6607L19.039 23.4801C19.1642 23.3566 19.2922 23.2375 19.4229 23.1228L18.3419 21.3821C16.4263 18.2971 12.1422 17.7888 9.5578 20.3398C8.48042 21.4032 7.87389 22.8539 7.87389 24.3678V37.3494H3.61151C1.61693 37.3494 0 35.7324 0 33.7379V19.8152C6.68992e-07 18.8493 0.386946 17.9235 1.07441 17.245L17.4904 1.04125C18.8968 -0.347043 21.1581 -0.347044 22.5646 1.04125L38.9805 17.245C39.668 17.9235 40.0549 18.8493 40.0549 19.8152V33.7379Z" fill="#5A9A97"/>
<path d="M25.6085 14.6949C27.0591 14.6949 28.2354 15.8712 28.2355 17.3218C28.2355 18.7724 27.0591 19.9488 25.6085 19.9488C24.1581 19.9486 22.9825 18.7723 22.9825 17.3218C22.9826 15.8713 24.1581 14.695 25.6085 14.6949ZM14.4464 10.5913C15.8968 10.5916 17.0724 11.7678 17.0724 13.2183C17.0722 14.6686 15.8967 15.8441 14.4464 15.8443C12.9959 15.8443 11.8197 14.6687 11.8195 13.2183C11.8195 11.7677 12.9958 10.5913 14.4464 10.5913Z" fill="white"/>
<path d="M105.477 13.0522C106.273 13.0727 106.987 13.1647 107.619 13.3286C108.354 13.5158 109.009 13.7898 109.584 14.1508C110.159 14.4985 110.667 14.9268 111.109 15.435C111.55 15.9432 111.958 16.5187 112.332 17.1606L109.364 18.183C109.19 17.568 108.956 17.0935 108.661 16.7592C108.381 16.4115 108.073 16.157 107.739 15.9965C107.418 15.8228 107.09 15.7164 106.756 15.6762C106.435 15.6361 106.147 15.6157 105.893 15.6157C105.452 15.6157 105.03 15.6627 104.629 15.7563C104.228 15.8365 103.874 15.9563 103.567 16.1166C103.273 16.2771 103.031 16.4785 102.844 16.7192C102.67 16.9464 102.583 17.2136 102.583 17.5209C102.583 17.8819 102.697 18.2297 102.924 18.5639C103.151 18.8981 103.459 19.2193 103.847 19.5268C104.235 19.8343 104.683 20.1288 105.191 20.4096C105.712 20.6904 106.261 20.9511 106.836 21.1918C107.665 21.5529 108.474 21.9547 109.263 22.3959C110.065 22.8239 110.775 23.3186 111.39 23.8803C112.018 24.4285 112.52 25.0441 112.894 25.726C113.268 26.4079 113.455 27.1698 113.455 28.0121C113.455 28.9081 113.315 29.7443 113.035 30.52C112.754 31.2955 112.299 31.9704 111.67 32.5453C111.042 33.1204 110.226 33.5753 109.223 33.9096C108.233 34.2439 107.023 34.4116 105.592 34.4116C104.402 34.4115 103.386 34.2643 102.543 33.9702C101.701 33.676 100.979 33.2946 100.377 32.8266C99.7755 32.3452 99.2736 31.8167 98.8724 31.2416C98.4713 30.6533 98.1165 30.0786 97.809 29.517L100.718 28.394L100.857 28.7787C101.202 29.6536 101.691 30.3547 102.323 30.8813C103.045 31.4696 103.981 31.7631 105.131 31.7631C105.613 31.7631 106.054 31.7099 106.455 31.603C106.87 31.496 107.224 31.3487 107.518 31.1616C107.812 30.961 108.04 30.734 108.201 30.4799C108.361 30.226 108.441 29.9517 108.441 29.6577C108.441 29.203 108.341 28.788 108.14 28.4135C107.939 28.0391 107.665 27.6976 107.318 27.3901C106.97 27.0692 106.562 26.7756 106.094 26.5082C105.626 26.2408 105.131 25.9862 104.61 25.7455C103.834 25.3979 103.058 25.0237 102.283 24.6225C101.52 24.2079 100.825 23.7326 100.197 23.1977C99.5816 22.6495 99.0796 22.0216 98.6918 21.3129C98.304 20.6043 98.1098 19.7882 98.1097 18.8657C98.1097 17.9965 98.2774 17.2072 98.6117 16.4985C98.9594 15.7763 99.4409 15.1609 100.056 14.6528C100.685 14.1446 101.427 13.75 102.283 13.4692C103.138 13.1883 104.088 13.0483 105.131 13.0483L105.477 13.0522ZM64.4642 14.8334C65.5741 14.3119 66.6108 13.8836 67.5736 13.5493C68.5495 13.2151 69.4385 13.0483 70.2406 13.0483C71.4575 13.0483 72.581 13.2957 73.6107 13.7905C74.6538 14.2719 75.5503 14.9333 76.2992 15.7758C77.0481 16.6049 77.6359 17.575 78.0638 18.685C78.4917 19.7949 78.7064 20.9716 78.7064 22.2153C78.7064 23.3118 78.5654 24.375 78.2845 25.4047C78.0171 26.4209 77.6366 27.3771 77.142 28.2729C76.6472 29.1689 76.0512 29.9918 75.3558 30.7407C74.6605 31.4894 73.8854 32.1316 73.0297 32.6664C72.1873 33.1879 71.2711 33.5959 70.2816 33.8901C69.3054 34.1843 68.2883 34.3315 67.2318 34.3315C65.694 34.3315 64.2228 34.1239 62.8187 33.7094C61.4147 33.2949 60.1448 32.6323 59.0082 31.7231V5.10394L63.1801 2.93793H64.4642V14.8334ZM87.556 12.9672C88.96 12.9672 90.1706 13.1012 91.1869 13.3686C92.203 13.636 93.0385 14.0175 93.6937 14.5121C94.349 14.9936 94.8305 15.5824 95.1381 16.2778C95.459 16.9598 95.6195 17.7286 95.6195 18.5844V30.3393C95.6195 31.1818 95.8873 31.8974 96.4222 32.4858C96.9704 33.0606 97.7325 33.5485 98.7084 33.9496H91.6273C91.467 33.9495 91.3134 33.8892 91.1664 33.769C91.0194 33.6487 90.8791 33.4951 90.7455 33.308C90.6118 33.1075 90.4911 32.8937 90.3842 32.6664C90.3374 32.5529 90.2959 32.4407 90.2592 32.3305L90.1635 32.0043C89.6285 32.352 89.147 32.673 88.7191 32.9672C88.2912 33.248 87.8629 33.4883 87.4349 33.6889C87.0205 33.8894 86.5796 34.0439 86.1117 34.1508C85.6437 34.2712 85.1018 34.3315 84.4867 34.3315C83.6041 34.3315 82.8078 34.1976 82.099 33.9301C81.3904 33.6627 80.789 33.2945 80.2943 32.8266C79.7996 32.3453 79.4182 31.7838 79.1508 31.142C78.8967 30.4867 78.7699 29.7773 78.7699 29.0151C78.7699 28.2128 78.9171 27.4971 79.2113 26.8686C79.5055 26.2269 79.9064 25.652 80.4144 25.144C80.936 24.6224 81.5514 24.1542 82.2601 23.7397C82.9687 23.3252 83.7308 22.9509 84.5463 22.6166C85.3754 22.2689 86.2453 21.948 87.1547 21.6537C88.064 21.3596 88.98 21.0713 89.9027 20.7905H90.183V18.7846C90.183 18.1295 90.1032 17.5742 89.9427 17.1196C89.7957 16.6517 89.5819 16.2773 89.3011 15.9965C89.0337 15.7023 88.7056 15.4948 88.3177 15.3745C87.93 15.2408 87.4953 15.1743 87.014 15.1743C86.4524 15.1743 85.9505 15.2683 85.5092 15.4555C85.0814 15.6427 84.7069 15.8964 84.3861 16.2172C84.0785 16.5382 83.825 16.9062 83.6244 17.3207C83.4372 17.7353 83.3033 18.1698 83.223 18.6245H78.7699C78.9839 17.7686 79.3509 16.9927 79.8724 16.2973C80.3939 15.5886 81.036 14.9936 81.7982 14.5121C82.5605 14.0174 83.4233 13.6361 84.3861 13.3686C85.3623 13.1011 86.4193 12.9672 87.556 12.9672ZM146.641 13.0483C148.219 13.0483 149.677 13.3151 151.014 13.85C152.351 14.3716 153.508 15.0943 154.484 16.017C155.46 16.9398 156.223 18.0295 156.771 19.2866C157.333 20.5302 157.614 21.8745 157.614 23.3188C157.614 24.8298 157.339 26.254 156.79 27.5912C156.242 28.9284 155.48 30.0991 154.504 31.102C153.528 32.0915 152.371 32.8798 151.034 33.4682C149.696 34.0432 148.239 34.3315 146.661 34.3315C145.083 34.3315 143.625 34.0636 142.287 33.5287C140.95 32.9938 139.794 32.2578 138.818 31.3217C137.855 30.3857 137.099 29.2895 136.551 28.0327C136.003 26.7623 135.728 25.3913 135.728 23.9203C135.728 22.3423 136.003 20.8908 136.551 19.5668C137.099 18.2298 137.855 17.0794 138.818 16.1166C139.794 15.1539 140.944 14.4054 142.268 13.8705C143.605 13.3223 145.063 13.0483 146.641 13.0483ZM54.4711 33.9496H48.6136V6.74945H54.4711V33.9496ZM120.941 2.93793V15.0737C122.211 14.3784 123.435 13.8641 124.612 13.5297C125.802 13.182 126.919 13.0082 127.962 13.0082L128.25 13.0161C128.919 13.0526 129.552 13.2166 130.149 13.5092C130.831 13.8301 131.419 14.2781 131.913 14.853C132.422 15.4146 132.823 16.077 133.118 16.8393C133.412 17.6014 133.559 18.4104 133.559 19.2661V33.9496H128.103V19.9282C128.103 18.8718 127.895 18.0692 127.481 17.5209C127.066 16.9593 126.524 16.6792 125.856 16.6791C125.575 16.6791 125.234 16.7323 124.832 16.8393C124.445 16.9463 124.023 17.0997 123.569 17.3002C123.127 17.5008 122.672 17.7349 122.204 18.0024C121.75 18.2698 121.329 18.5643 120.941 18.8852V33.9496H115.445V5.10394L119.658 2.93793H120.941ZM145.778 15.5151C145.23 15.5152 144.702 15.6961 144.194 16.0571C143.699 16.4181 143.257 16.9059 142.87 17.5209C142.495 18.1227 142.187 18.825 141.947 19.6274C141.719 20.4164 141.606 21.2526 141.606 22.1352C141.606 23.459 141.74 24.7094 142.007 25.8862C142.275 27.0629 142.656 28.0925 143.151 28.975C143.645 29.8441 144.247 30.5395 144.955 31.061C145.678 31.5691 146.487 31.8237 147.383 31.8237C148.012 31.8236 148.586 31.6427 149.108 31.2817C149.643 30.9072 150.105 30.4124 150.493 29.7973C150.88 29.1689 151.181 28.4468 151.395 27.6313C151.609 26.8155 151.716 25.9661 151.716 25.0834C151.716 23.7731 151.609 22.5429 151.395 21.393C151.194 20.2296 150.853 19.2124 150.371 18.3432C149.904 17.4743 149.289 16.7858 148.527 16.2778C147.778 15.7696 146.861 15.5151 145.778 15.5151ZM68.2953 17.06C67.6267 17.06 66.9447 17.2338 66.2494 17.5815C65.5674 17.9158 64.9724 18.3441 64.4642 18.8657V30.2387C64.7183 30.4259 64.9657 30.6069 65.2064 30.7807C65.4603 30.9544 65.7276 31.108 66.0082 31.2416C66.289 31.3754 66.5905 31.4827 66.9115 31.5629C67.2457 31.6431 67.6201 31.683 68.0345 31.683C68.7834 31.683 69.4653 31.4755 70.0804 31.061C70.7089 30.633 71.2437 30.0513 71.6849 29.3159C72.1262 28.5671 72.4677 27.6917 72.7084 26.6889C72.9491 25.6726 73.0697 24.5819 73.0697 23.4184C73.0697 22.5493 72.9419 21.7333 72.6879 20.9711C72.4472 20.1958 72.1065 19.5206 71.6654 18.9457C71.2375 18.3573 70.7294 17.8953 70.141 17.561C69.566 17.2266 68.9506 17.06 68.2953 17.06ZM90.183 23.3588C89.4075 23.6263 88.6589 23.9474 87.9369 24.3217C87.2282 24.6828 86.5932 25.0907 86.0316 25.5453C85.4833 26 85.0417 26.4948 84.7074 27.0297C84.3865 27.5512 84.226 28.1126 84.226 28.7143C84.226 29.3962 84.4398 29.931 84.8676 30.3188C85.2955 30.7066 85.871 30.9008 86.5931 30.9008C87.2214 30.9008 87.8097 30.7606 88.3578 30.4799C88.906 30.1857 89.5144 29.7839 90.183 29.2758V23.3588Z" fill="#FF9100"/>
</svg>
