<svg width="48" height="48" viewBox="0 0 48 48" fill="none" xmlns="http://www.w3.org/2000/svg">
<g clip-path="url(#clip0_9249_273)">
<g clip-path="url(#clip1_9249_273)">
<path d="M7.22852 11.1792C4.8075 12.076 3.07715 14.4081 3.07715 17.1371C3.07715 20.1459 5.18066 22.6727 7.99426 23.325V25.4435C7.99426 26.0001 8.31653 26.5066 8.8208 26.7424C9.01453 26.8333 9.22217 26.8776 9.42834 26.8776C9.7583 26.8776 10.085 26.764 10.3479 26.5443L14.0067 23.4883H20.1422C22.6244 23.4883 24.7773 22.056 25.8214 19.9756H18.3452C12.9506 19.9752 8.41797 16.2157 7.22852 11.1792Z" fill="#5A9A97"/>
<path d="M33.8575 0H18.3452C13.6288 0 9.79199 3.83716 9.79199 8.55359C9.79199 13.27 13.6288 17.1068 18.3452 17.1068H27.4617L32.9384 21.6812C33.2013 21.9009 33.528 22.0144 33.8579 22.0144C34.0641 22.0144 34.2714 21.9701 34.4655 21.8793C34.9697 21.6434 35.292 21.137 35.292 20.5803V16.9867C39.328 16.3026 42.4111 12.7815 42.4111 8.55359C42.4111 3.83716 38.574 0 33.8575 0Z" fill="#0F5D59"/>
<path d="M17.0108 41.8948C16.1001 40.3578 14.766 39.1446 13.2096 38.3664C14.9974 36.2603 14.8993 33.09 12.9118 31.103C10.8197 29.0104 7.41538 29.0108 5.32322 31.103C4.30955 32.1163 3.75144 33.4639 3.75144 34.8973C3.75144 36.1827 4.20151 37.3985 5.02512 38.3667C3.46909 39.1446 2.13499 40.3582 1.22422 41.8948C0.477881 43.1535 0.466528 44.667 1.19346 45.9433C1.92734 47.2309 3.24863 47.9999 4.72812 47.9999H13.5069C14.9864 47.9999 16.3081 47.2309 17.0416 45.9433C17.7685 44.667 17.7572 43.1535 17.0108 41.8948Z" fill="#FF9100"/>
<path d="M46.7136 40.7885C45.493 38.7293 43.6583 37.1388 41.5254 36.1947C42.7471 34.9727 43.4202 33.3482 43.4202 31.62C43.4202 29.8919 42.7471 28.267 41.5251 27.0446C39.0019 24.5217 34.897 24.5221 32.3742 27.0446C31.1522 28.267 30.4791 29.8915 30.4791 31.62C30.4791 33.3482 31.1522 34.973 32.3738 36.1947C30.241 37.1388 28.4063 38.7293 27.1857 40.7885C26.3046 42.2745 26.2914 44.0617 27.1502 45.569C28.0174 47.0913 29.5789 47.9999 31.3272 47.9999H42.5721C44.3204 47.9999 45.8819 47.0913 46.7494 45.569C47.6078 44.0617 47.5947 42.2745 46.7136 40.7885Z" fill="#0F5D59"/>
</g>
</g>
<defs>
<clipPath id="clip0_9249_273">
<rect width="48" height="48" fill="white"/>
</clipPath>
<clipPath id="clip1_9249_273">
<rect width="48" height="48" fill="white"/>
</clipPath>
</defs>
</svg>
