<svg width="48" height="48" viewBox="0 0 48 48" fill="none" xmlns="http://www.w3.org/2000/svg">
<g clip-path="url(#clip0_9249_177)">
<g clip-path="url(#clip1_9249_177)">
<path d="M44.6593 28.9311C43.124 28.9311 41.8261 30.0306 41.5732 31.5454L41.2118 33.7156C40.4487 38.2946 36.2161 41.1277 31.5739 41.1277H26.8979C25.1489 41.1277 23.726 40.1954 23.726 38.4464C23.726 36.6974 25.1488 35.2071 26.8979 35.2071H31.9292C33.6782 35.2071 35.1011 33.7843 35.1011 32.0352C35.1011 30.2862 33.6783 28.8634 31.9292 28.8634H28.6025C26.7957 28.8634 25.0456 28.4029 23.5402 27.4033C21.1828 25.8382 18.1941 25.4558 15.4445 26.0172C13.0898 26.4981 11.2161 27.5537 9.72662 29.2234V24.1732C9.72662 23.2971 9.01627 22.5198 8.14074 22.5198H1.79706C0.921525 22.5198 0.211182 23.2971 0.211182 24.1732V46.3759C0.211182 47.2521 0.921525 48.0001 1.79706 48.0001H8.14065C9.01618 48.0001 9.72652 47.2521 9.72652 46.3761V45.661C13.9682 46.9912 20.4486 47.4715 24.0121 47.4715H32.0572C39.4819 47.4715 46.0665 42.6456 47.2879 35.3211L47.7453 32.5743C48.0634 30.668 46.5921 28.9311 44.6593 28.9311ZM6.55477 44.4053H3.38303V25.2688H6.55487L6.55477 44.4053Z" fill="#0F5D59"/>
<path d="M36.6868 0C33.0494 0 29.6391 1.80169 27.5761 4.75772H23.9995C23.5793 4.75772 23.1756 4.92497 22.8783 5.22234L20.8649 7.23572L19.0117 5.25891C18.4049 4.61194 17.4008 4.59525 16.7671 5.18869L14.5173 7.30594L12.4337 5.22234C11.8142 4.60294 10.8106 4.60294 10.1911 5.22234L5.43338 9.98006C4.81388 10.599 4.81388 11.6036 5.43338 12.2227L10.1911 16.9803C10.4885 17.2777 10.8922 17.4449 11.3123 17.4449H27.5761C29.6391 20.4009 33.0494 22.2026 36.6868 22.2026C42.8084 22.2026 47.7881 17.2224 47.7881 11.1013C47.7881 4.98019 42.8084 0 36.6868 0ZM36.6869 15.859C34.0634 15.859 31.9292 13.7248 31.9292 11.1013C31.9292 8.47781 34.0633 6.34359 36.6869 6.34359C39.3104 6.34359 41.4446 8.47781 41.4446 11.1013C41.4446 13.7248 39.3104 15.859 36.6869 15.859Z" fill="#FF9100"/>
</g>
</g>
<defs>
<clipPath id="clip0_9249_177">
<rect width="48" height="48" fill="white"/>
</clipPath>
<clipPath id="clip1_9249_177">
<rect width="48" height="48" fill="white"/>
</clipPath>
</defs>
</svg>
