<svg width="48" height="48" viewBox="0 0 48 48" fill="none" xmlns="http://www.w3.org/2000/svg">
<g clip-path="url(#clip0_9249_151)">
<g clip-path="url(#clip1_9249_151)">
<path d="M5.67731 13.708L13.7079 5.67741L10.1092 3.97266L3.97266 10.1093L5.67731 13.708Z" fill="#0F5D59"/>
<path d="M2.00817 0.135459C1.47127 -0.119073 0.832078 -0.00826022 0.41189 0.412021C-0.00829741 0.832302 -0.119016 1.4713 0.135421 2.0083L2.69423 7.41037L7.41023 2.69436L2.00817 0.135459Z" fill="#0F5D59"/>
<path d="M7.36938 15.9915L10.6835 12.6773L35.819 37.8128L32.5049 41.127L7.36938 15.9915Z" fill="#0F5D59"/>
<path d="M12.6729 10.6892L15.9869 7.37515L41.1224 32.5106L37.8084 35.8247L12.6729 10.6892Z" fill="#0F5D59"/>
<path d="M38.1464 46.7645C38.9688 47.5868 40.0492 47.998 41.1295 47.998C42.2098 47.998 43.2902 47.5868 44.1125 46.7644L46.7642 44.1128C48.409 42.4679 48.409 39.7915 46.7642 38.1465H46.7642L43.1181 34.5005L34.5002 43.1184L38.1464 46.7645Z" fill="#FF9100"/>
<path d="M37.6836 9.65385C38.2327 9.10475 39.1231 9.10475 39.6723 9.65385L43.9812 13.9627L47.5883 10.3557C48.1375 9.80657 48.1375 8.91613 47.5883 8.36694L39.6332 0.412064C39.0841 -0.137029 38.1937 -0.137029 37.6445 0.412064L25.3259 12.7306L35.2696 22.6743L37.3521 20.5918L33.7061 16.9458C33.1569 16.3967 33.1569 15.5063 33.7061 14.9571C34.2551 14.408 35.1456 14.408 35.6948 14.9571L39.3408 18.6031L41.9925 15.9514L37.6836 11.6426C37.1343 11.0934 37.1343 10.203 37.6836 9.65385Z" fill="#5A9A97"/>
<path d="M14.957 33.706C15.5061 33.1569 16.3965 33.1569 16.9457 33.706L20.5918 37.352L22.6741 35.2696L12.7305 25.3259L0.411891 37.6444C-0.137297 38.1935 -0.137297 39.0839 0.411891 39.6331L8.36686 47.5882C8.63058 47.8519 8.98823 48.0001 9.36117 48.0001C9.73411 48.0001 10.0919 47.852 10.3555 47.5882L13.9625 43.9811L9.65367 39.6722C9.10448 39.123 9.10448 38.2327 9.65367 37.6835C10.2029 37.1343 11.0933 37.1342 11.6424 37.6835L15.9512 41.9924L18.603 39.3407L14.9569 35.6947C14.4077 35.1456 14.4077 34.2551 14.957 33.706Z" fill="#5A9A97"/>
</g>
</g>
<defs>
<clipPath id="clip0_9249_151">
<rect width="48" height="48" fill="white"/>
</clipPath>
<clipPath id="clip1_9249_151">
<rect width="48" height="48" fill="white"/>
</clipPath>
</defs>
</svg>
