<svg width="24" height="24" viewBox="0 0 24 24" fill="none" xmlns="http://www.w3.org/2000/svg">
<path fill-rule="evenodd" clip-rule="evenodd" d="M12.0004 1.25C11.8015 1.25 11.6107 1.32902 11.47 1.46967C11.3294 1.61032 11.2504 1.80109 11.2504 2V12.973L9.57036 11.012C9.50628 10.9371 9.42808 10.8756 9.34022 10.831C9.25237 10.7864 9.15659 10.7595 9.05835 10.7519C8.9601 10.7443 8.86132 10.7561 8.76764 10.7866C8.67396 10.8172 8.58722 10.8659 8.51236 10.93C8.43751 10.9941 8.37601 11.0723 8.33138 11.1601C8.28675 11.248 8.25986 11.3438 8.25224 11.442C8.24463 11.5403 8.25644 11.639 8.287 11.7327C8.31756 11.8264 8.36628 11.9131 8.43036 11.988L11.4304 15.488C11.5008 15.5703 11.5882 15.6364 11.6866 15.6818C11.785 15.7271 11.892 15.7506 12.0004 15.7506C12.1087 15.7506 12.2157 15.7271 12.3141 15.6818C12.4125 15.6364 12.5 15.5703 12.5704 15.488L15.5704 11.988C15.6344 11.9131 15.6832 11.8264 15.7137 11.7327C15.7443 11.639 15.7561 11.5403 15.7485 11.442C15.7409 11.3438 15.714 11.248 15.6693 11.1601C15.6247 11.0723 15.5632 10.9941 15.4884 10.93C15.4135 10.8659 15.3268 10.8172 15.2331 10.7866C15.1394 10.7561 15.0406 10.7443 14.9424 10.7519C14.8441 10.7595 14.7484 10.7864 14.6605 10.831C14.5726 10.8756 14.4944 10.9371 14.4304 11.012L12.7504 12.972V2C12.7504 1.80109 12.6713 1.61032 12.5307 1.46967C12.39 1.32902 12.1993 1.25 12.0004 1.25Z" fill="#0F5D59"/>
<path d="M14.25 9V9.378C14.7174 9.21188 15.2265 9.20492 15.6983 9.35821C16.17 9.51151 16.5778 9.81645 16.8583 10.2256C17.1387 10.6347 17.276 11.1251 17.2488 11.6203C17.2217 12.1156 17.0315 12.588 16.708 12.964L13.708 16.464C13.4968 16.7103 13.2348 16.908 12.9399 17.0436C12.6451 17.1792 12.3245 17.2493 12 17.2493C11.6755 17.2493 11.3549 17.1792 11.0601 17.0436C10.7652 16.908 10.5032 16.7103 10.292 16.464L7.292 12.964C6.96938 12.5878 6.78 12.1156 6.75326 11.6207C6.72651 11.1259 6.86391 10.636 7.1441 10.2272C7.4243 9.81843 7.83162 9.5136 8.30283 9.36004C8.77403 9.20648 9.28275 9.2128 9.75 9.378V9H8C5.172 9 3.757 9 2.879 9.879C2 10.757 2 12.172 2 15V16C2 18.828 2 20.243 2.879 21.121C3.757 22 5.172 22 8 22H16C18.828 22 20.243 22 21.121 21.121C22 20.243 22 18.828 22 16V15C22 12.172 22 10.757 21.121 9.879C20.243 9 18.828 9 16 9H14.25Z" fill="#0F5D59"/>
</svg>
