<svg width="48" height="48" viewBox="0 0 48 48" fill="none" xmlns="http://www.w3.org/2000/svg">
<g clip-path="url(#clip0_9249_166)">
<g clip-path="url(#clip1_9249_166)">
<path d="M0.52764 7.0227L8.05877 13.048C8.82305 13.6592 9.64007 13.2358 9.93194 12.944L10.4435 12.4324L20.7758 22.7643L22.7643 20.7757L12.4324 10.4435L12.9444 9.93151C13.4509 9.42504 13.4955 8.61828 13.048 8.05871L7.02312 0.527579C6.773 0.215201 6.40203 0.0240385 6.00286 0.0016997C5.60406 -0.0191743 5.21331 0.128775 4.93059 0.41149L0.411917 4.93053C0.129202 5.21325 -0.0198454 5.60326 0.0021273 6.00243C0.0240999 6.40197 0.215262 6.77294 0.52764 7.0227Z" fill="#5A9A97"/>
<path d="M47.1317 6.13184C46.6062 5.91431 46.0016 6.03442 45.5995 6.43689L40.5688 11.4675L36.6489 7.54797L42.9536 2.50415C43.4198 2.13135 43.5996 1.50439 43.4019 0.940796C43.2045 0.377197 42.6724 0 42.0751 0H34.5439C30.5328 0 27.1124 3.23254 27.1124 7.43115V12.8738L22.9761 17.0101L24.8412 18.8752C25.4901 18.4841 26.2354 18.275 27.0128 18.275C28.1396 18.275 29.1991 18.7137 29.9956 19.511L33.2494 22.7644L35.1262 20.8876H40.5688C44.6664 20.8876 48 17.554 48 13.4564V7.43115C48 6.86243 47.6572 6.34973 47.1317 6.13184Z" fill="#0F5D59"/>
<path d="M18.275 27.0125C18.275 26.2354 18.4841 25.4901 18.8752 24.8412L17.0101 22.9761L12.8738 27.1124H7.43115C3.33362 27.1124 0 30.446 0 34.5439V40.5688C0 41.1376 0.342773 41.6503 0.868286 41.8682C1.39343 42.0853 1.99841 41.9652 2.40051 41.5631L7.43115 36.5325L11.4675 40.5688L6.43689 45.5995C6.03479 46.0016 5.91431 46.6066 6.13184 47.1321C6.34973 47.6576 6.86243 48 7.43115 48H13.4564C17.554 48 20.8876 44.6664 20.8876 40.5688V35.1262L22.7644 33.2494L19.511 29.9956C18.7141 29.1987 18.275 28.1393 18.275 27.0125Z" fill="#0F5D59"/>
<path d="M28.007 21.4994C27.4576 20.9501 26.5674 20.9501 26.0181 21.4994L21.4994 26.0181C20.9501 26.5674 20.9501 27.4576 21.4994 28.0066L41.0807 47.5879C41.63 48.1372 42.5203 48.1368 43.0692 47.5879L47.5883 43.0692C48.1376 42.5199 48.1368 41.6293 47.5883 41.0803L28.007 21.4994Z" fill="#FF9100"/>
</g>
</g>
<defs>
<clipPath id="clip0_9249_166">
<rect width="48" height="48" fill="white"/>
</clipPath>
<clipPath id="clip1_9249_166">
<rect width="48" height="48" fill="white"/>
</clipPath>
</defs>
</svg>
